<?xml version="1.0" standalone="no"?>
<!DOCTYPE svg PUBLIC "-//W3C//DTD SVG 20010904//EN"
 "http://www.w3.org/TR/2001/REC-SVG-20010904/DTD/svg10.dtd">
<svg version="1.0" xmlns="http://www.w3.org/2000/svg"
 width="512.000000pt" height="512.000000pt" viewBox="0 0 512.000000 512.000000"
 preserveAspectRatio="xMidYMid meet">
<metadata>
Created by potrace 1.14, written by Peter Selinger 2001-2017
</metadata>
<g transform="translate(0.000000,512.000000) scale(0.100000,-0.100000)"
fill="#000000" stroke="none">
<path d="M1588 4784 c-57 -17 -113 -70 -140 -130 -26 -61 -30 -300 -4 -339 31
-46 111 -41 134 9 5 13 11 79 11 147 1 120 2 125 27 147 l25 22 683 0 683 0
27 -26 26 -27 0 -253 0 -254 -948 0 c-824 0 -956 -2 -1007 -16 -133 -34 -232
-124 -281 -254 -16 -42 -18 -136 -19 -1230 -2 -1280 -3 -1244 51 -1337 38 -66
106 -128 177 -162 73 -35 104 -40 273 -40 l121 -1 1 -266 1 -266 26 -54 c26
-54 59 -85 125 -116 32 -16 97 -17 733 -18 507 0 710 3 738 11 55 17 118 74
145 133 23 49 24 59 24 314 l0 262 135 2 c170 1 151 -1 215 20 60 20 127 64
172 113 43 46 87 143 95 210 5 33 8 423 7 867 0 561 3 808 10 811 6 2 63 3
128 2 122 -2 160 -13 170 -52 3 -10 4 -220 4 -466 l-1 -449 -23 -18 c-12 -10
-40 -21 -61 -25 -45 -7 -71 -38 -71 -83 0 -31 31 -71 58 -73 114 -10 226 70
250 178 11 49 9 961 -3 988 -23 55 -71 107 -123 132 -51 25 -64 27 -193 27
-77 1 -140 3 -140 6 -1 3 -3 113 -4 245 -1 137 -7 264 -14 295 -22 103 -105
214 -196 260 -75 38 -128 48 -271 49 -76 1 -139 3 -141 4 -1 2 -3 120 -3 263
-1 253 -2 262 -25 310 -31 64 -53 88 -106 116 l-44 23 -705 2 c-592 2 -712 0
-752 -13z m1938 -879 c59 -25 103 -65 131 -122 l27 -55 0 -1168 0 -1168 -28
-57 c-31 -62 -84 -108 -145 -125 -23 -6 -447 -10 -1196 -10 l-1160 0 -50 24
c-52 24 -92 63 -123 120 -15 29 -17 121 -18 1201 -1 1108 0 1173 17 1219 27
73 81 123 159 147 14 4 548 8 1188 8 988 1 1169 -1 1198 -14z m-466 -3110 c0
-265 -5 -296 -52 -309 -13 -3 -326 -6 -696 -6 l-673 0 -24 25 c-27 26 -26 19
-26 310 0 36 0 101 0 145 l1 80 735 0 735 0 0 -245z"/>
<path d="M1194 2943 c-61 -20 -118 -74 -144 -135 -22 -49 -23 -68 -24 -241 -1
-223 8 -263 81 -334 124 -120 332 -82 410 76 27 53 32 397 8 475 -19 61 -68
117 -129 149 -50 25 -145 30 -202 10z m158 -173 c22 -21 23 -26 23 -211 0
-189 0 -191 -24 -210 -51 -41 -108 -36 -145 14 -19 26 -21 41 -20 196 0 144 2
172 17 195 33 50 104 58 149 16z"/>
<path d="M1835 2944 c-60 -21 -110 -67 -142 -132 -28 -57 -28 -57 -27 -258 l1
-200 29 -53 c102 -188 366 -183 461 8 27 53 32 397 8 475 -19 61 -68 117 -129
149 -50 25 -144 30 -201 11z m157 -174 c22 -20 23 -29 26 -192 4 -188 -3 -220
-49 -243 -39 -20 -72 -19 -102 5 -38 30 -43 60 -42 231 1 168 9 199 58 219 32
14 83 4 109 -20z"/>
<path d="M2636 2945 c-87 -33 -148 -104 -163 -191 -5 -27 -8 -128 -8 -224 2
-168 3 -177 28 -226 96 -188 359 -190 459 -3 22 41 23 56 25 245 3 220 -1 244
-51 311 -62 84 -195 124 -290 88z m135 -160 c16 -9 34 -27 39 -41 6 -14 10
-101 10 -194 l0 -168 -31 -31 c-45 -45 -111 -38 -146 15 -15 23 -18 52 -18
183 -1 171 4 201 42 231 31 24 64 25 104 5z"/>
<path d="M3280 2945 c-63 -20 -114 -66 -146 -132 -28 -55 -28 -60 -29 -245 0
-162 2 -196 18 -240 53 -141 221 -207 355 -139 55 28 89 65 119 129 24 51 24
57 21 255 -3 184 -5 206 -24 242 -62 115 -192 169 -314 130z m129 -160 c46
-24 53 -55 49 -245 -3 -167 -4 -172 -27 -191 -51 -41 -108 -36 -144 13 -19 25
-21 43 -22 194 -1 143 2 170 17 195 29 47 77 60 127 34z"/>
<path d="M2283 2868 c-49 -24 -56 -144 -10 -184 54 -46 130 -3 129 73 0 64 -3
75 -27 98 -25 26 -56 31 -92 13z"/>
<path d="M2295 2450 c-34 -13 -48 -39 -50 -89 -3 -68 18 -109 61 -117 40 -7
81 15 89 49 20 80 6 133 -41 153 -18 8 -35 14 -36 13 -2 0 -12 -4 -23 -9z"/>
</g>
</svg>
